<svg width="32" height="33" viewBox="0 0 32 33" fill="none" xmlns="http://www.w3.org/2000/svg">
<path d="M16.0059 20.41L16.0059 20.4099L15.9941 20.41C14.8079 20.4241 13.6642 19.9693 12.8117 19.1446L7.18025 13.4533C7.10456 13.3594 7.06525 13.2411 7.06992 13.1203C7.07478 12.9944 7.12695 12.8751 7.216 12.786C7.30504 12.697 7.42441 12.6448 7.55025 12.6399C7.67075 12.6353 7.78868 12.6743 7.88246 12.7496L13.5265 18.3936L13.5263 18.3937L13.5359 18.4027C14.201 19.0339 15.083 19.3857 16 19.3857C16.917 19.3857 17.799 19.0339 18.4642 18.4027L18.4643 18.4028L18.4736 18.3936L24.1176 12.7496C24.2113 12.6743 24.3293 12.6353 24.4498 12.6399C24.5756 12.6448 24.695 12.697 24.784 12.786C24.8731 12.8751 24.9252 12.9944 24.9301 13.1203C24.9348 13.2411 24.8955 13.3594 24.8198 13.4533L19.1883 19.1446C18.3358 19.9693 17.1921 20.4241 16.0059 20.41Z" fill="black" stroke="#91919F"/>
</svg>
