<svg width="164" height="80" viewBox="0 0 164 80" fill="none" xmlns="http://www.w3.org/2000/svg">
<rect width="164" height="80" rx="28" fill="#FD3C4A"/>
<path d="M73.1186 32H79.5618V30.6776H74.6548V27.5604H79.169V26.2429H74.6548V23.1406H79.5021V21.8182H73.1186V32ZM82.6081 24.3636H80.9775L83.324 28.1818L80.9476 32H82.5783L84.2935 29.1463L86.0137 32H87.6394L85.2381 28.1818L87.6195 24.3636H85.9938L84.2935 27.3366L82.6081 24.3636ZM89.1458 34.8636H90.6323V30.8118H90.7218C90.9902 31.299 91.5371 32.1491 92.9292 32.1491C94.7786 32.1491 96.1209 30.6676 96.1209 28.1967C96.1209 25.7209 94.7587 24.2642 92.9142 24.2642C91.4973 24.2642 90.9853 25.1293 90.7218 25.6016H90.5975V24.3636H89.1458V34.8636ZM90.6025 28.1818C90.6025 26.5859 91.2985 25.527 92.5961 25.527C93.9434 25.527 94.6195 26.6655 94.6195 28.1818C94.6195 29.7131 93.9235 30.8814 92.5961 30.8814C91.3184 30.8814 90.6025 29.7876 90.6025 28.1818ZM101.078 32.1541C102.743 32.1541 103.921 31.3338 104.259 30.0909L102.852 29.8374C102.584 30.5582 101.938 30.9261 101.093 30.9261C99.8198 30.9261 98.9647 30.1009 98.9249 28.6293H104.354V28.1023C104.354 25.343 102.703 24.2642 100.973 24.2642C98.8453 24.2642 97.4434 25.8849 97.4434 28.2315C97.4434 30.603 98.8255 32.1541 101.078 32.1541ZM98.9299 27.5156C98.9895 26.4318 99.775 25.4922 100.983 25.4922C102.137 25.4922 102.892 26.3473 102.897 27.5156H98.9299ZM107.49 27.4659C107.49 26.2479 108.235 25.5518 109.27 25.5518C110.279 25.5518 110.89 26.2131 110.89 27.3217V32H112.377V27.1428C112.377 25.2536 111.338 24.2642 109.777 24.2642C108.628 24.2642 107.877 24.7962 107.525 25.6065H107.43V24.3636H106.003V32H107.49V27.4659ZM120.093 26.228C119.784 25.0398 118.855 24.2642 117.204 24.2642C115.479 24.2642 114.256 25.174 114.256 26.5263C114.256 27.6101 114.912 28.331 116.344 28.6491L117.637 28.9325C118.373 29.0966 118.716 29.4247 118.716 29.902C118.716 30.4936 118.084 30.956 117.11 30.956C116.22 30.956 115.648 30.5732 115.469 29.8224L114.032 30.0412C114.281 31.3935 115.404 32.1541 117.12 32.1541C118.964 32.1541 120.242 31.1747 120.242 29.7926C120.242 28.7138 119.556 28.0476 118.154 27.7244L116.941 27.446C116.1 27.2472 115.738 26.9638 115.743 26.4467C115.738 25.8601 116.374 25.4425 117.219 25.4425C118.144 25.4425 118.571 25.9545 118.745 26.4666L120.093 26.228ZM125.167 32.1541C126.833 32.1541 128.011 31.3338 128.349 30.0909L126.942 29.8374C126.674 30.5582 126.028 30.9261 125.182 30.9261C123.91 30.9261 123.055 30.1009 123.015 28.6293H128.444V28.1023C128.444 25.343 126.793 24.2642 125.063 24.2642C122.935 24.2642 121.533 25.8849 121.533 28.2315C121.533 30.603 122.915 32.1541 125.167 32.1541ZM123.02 27.5156C123.079 26.4318 123.865 25.4922 125.073 25.4922C126.226 25.4922 126.982 26.3473 126.987 27.5156H123.02ZM135.815 26.228C135.507 25.0398 134.577 24.2642 132.927 24.2642C131.202 24.2642 129.979 25.174 129.979 26.5263C129.979 27.6101 130.635 28.331 132.067 28.6491L133.359 28.9325C134.095 29.0966 134.438 29.4247 134.438 29.902C134.438 30.4936 133.807 30.956 132.832 30.956C131.942 30.956 131.371 30.5732 131.192 29.8224L129.755 30.0412C130.004 31.3935 131.127 32.1541 132.842 32.1541C134.687 32.1541 135.964 31.1747 135.964 29.7926C135.964 28.7138 135.278 28.0476 133.876 27.7244L132.663 27.446C131.823 27.2472 131.46 26.9638 131.465 26.4467C131.46 25.8601 132.097 25.4425 132.942 25.4425C133.866 25.4425 134.294 25.9545 134.468 26.4666L135.815 26.228Z" fill="#FCFCFC"/><rect x="16" y="17" width="48" height="48" rx="16" fill="#FCFCFC"/>
<path d="M47.1975 39H33.1975C31.8714 39 30.5997 39.5268 29.662 40.4645C28.7243 41.4021 28.1975 42.6739 28.1975 44V50C28.1975 51.3261 28.7243 52.5979 29.662 53.5355C30.5997 54.4732 31.8714 55 33.1975 55H47.1975C48.5236 55 49.7954 54.4732 50.733 53.5355C51.6707 52.5979 52.1975 51.3261 52.1975 50V44C52.1975 42.6739 51.6707 41.4021 50.733 40.4645C49.7954 39.5268 48.5236 39 47.1975 39ZM40.1975 51C39.4064 51 38.633 50.7654 37.9752 50.3259C37.3174 49.8864 36.8047 49.2616 36.502 48.5307C36.1992 47.7998 36.12 46.9956 36.2744 46.2196C36.4287 45.4437 36.8097 44.731 37.3691 44.1716C37.9285 43.6122 38.6412 43.2312 39.4171 43.0769C40.1931 42.9225 40.9973 43.0017 41.7282 43.3045C42.4591 43.6072 43.0839 44.1199 43.5234 44.7777C43.9629 45.4355 44.1975 46.2089 44.1975 47C44.1975 48.0609 43.7761 49.0783 43.0259 49.8284C42.2758 50.5786 41.2584 51 40.1975 51Z" fill="#FD3C4A"/>
<path d="M40.1975 49C41.3021 49 42.1975 48.1046 42.1975 47C42.1975 45.8954 41.3021 45 40.1975 45C39.0929 45 38.1975 45.8954 38.1975 47C38.1975 48.1046 39.0929 49 40.1975 49Z" fill="#FD3C4A"/>
<path d="M40.9075 27.29C40.8145 27.1963 40.7039 27.1219 40.5821 27.0711C40.4602 27.0203 40.3295 26.9942 40.1975 26.9942C40.0655 26.9942 39.9348 27.0203 39.8129 27.0711C39.691 27.1219 39.5804 27.1963 39.4875 27.29L35.2475 31.54C35.0539 31.727 34.9425 31.9832 34.9378 32.2523C34.9331 32.5214 35.0355 32.7814 35.2225 32.975C35.4095 33.1686 35.6657 33.28 35.9348 33.2847C36.2039 33.2894 36.4639 33.187 36.6575 33L39.1975 30.41V36C39.1975 36.2652 39.3028 36.5196 39.4904 36.7071C39.6779 36.8946 39.9323 37 40.1975 37C40.4627 37 40.717 36.8946 40.9046 36.7071C41.0921 36.5196 41.1975 36.2652 41.1975 36V30.41L43.7375 33C43.9237 33.1847 44.1751 33.2889 44.4375 33.29C44.5774 33.2976 44.7174 33.2757 44.8483 33.2258C44.9792 33.1758 45.0982 33.0989 45.1975 33C45.3837 32.8126 45.4883 32.5592 45.4883 32.295C45.4883 32.0308 45.3837 31.7774 45.1975 31.59L40.9075 27.29Z" fill="#FD3C4A"/>
</svg>
