<svg width="164" height="80" viewBox="0 0 164 80" fill="none" xmlns="http://www.w3.org/2000/svg">
<g clip-path="url(#clip0_7_626)">
<path d="M136 0H28C12.536 0 0 12.536 0 28V52C0 67.464 12.536 80 28 80H136C151.464 80 164 67.464 164 52V28C164 12.536 151.464 0 136 0Z" fill="#00A86B"/>
<path d="M76.6549 21.8182H75.1187V32H76.6549V21.8182ZM80.2593 27.4659C80.2593 26.2479 81.0051 25.5518 82.0392 25.5518C83.0484 25.5518 83.6599 26.2131 83.6599 27.3217V32H85.1464V27.1428C85.1464 25.2536 84.1073 24.2642 82.5463 24.2642C81.3978 24.2642 80.6471 24.7962 80.2941 25.6065H80.1997V24.3636H78.7728V32H80.2593V27.4659ZM90.3566 32.1541C92.1613 32.1541 93.3296 31.0703 93.4937 29.5838H92.047C91.8581 30.4091 91.2167 30.8963 90.3666 30.8963C89.1088 30.8963 88.2984 29.8473 88.2984 28.1818C88.2984 26.5462 89.1237 25.517 90.3666 25.517C91.3112 25.517 91.8879 26.1136 92.047 26.8295H93.4937C93.3346 25.2884 92.0768 24.2642 90.3417 24.2642C88.189 24.2642 86.797 25.8849 86.797 28.2166C86.797 30.5185 88.1393 32.1541 90.3566 32.1541ZM98.2999 32.1541C100.453 32.1541 101.86 30.5781 101.86 28.2166C101.86 25.8402 100.453 24.2642 98.2999 24.2642C96.1472 24.2642 94.7402 25.8402 94.7402 28.2166C94.7402 30.5781 96.1472 32.1541 98.2999 32.1541ZM98.305 30.9062C96.898 30.9062 96.2418 29.6783 96.2418 28.2116C96.2418 26.75 96.898 25.5071 98.305 25.5071C99.702 25.5071 100.358 26.75 100.358 28.2116C100.358 29.6783 99.702 30.9062 98.305 30.9062ZM103.519 32H105.005V27.2919C105.005 26.2628 105.726 25.5469 106.571 25.5469C107.397 25.5469 107.968 26.0938 107.968 26.924V32H109.45V27.1328C109.45 26.2131 110.012 25.5469 110.981 25.5469C111.767 25.5469 112.413 25.9844 112.413 27.0185V32H113.9V26.8793C113.9 25.1342 112.925 24.2642 111.543 24.2642C110.444 24.2642 109.619 24.7912 109.251 25.6065H109.172C108.838 24.7713 108.137 24.2642 107.118 24.2642C106.109 24.2642 105.358 24.7663 105.04 25.6065H104.946V24.3636H103.519V32ZM119.183 32.1541C120.849 32.1541 122.027 31.3338 122.365 30.0909L120.958 29.8374C120.689 30.5582 120.043 30.9261 119.198 30.9261C117.925 30.9261 117.07 30.1009 117.03 28.6293H122.459V28.1023C122.459 25.343 120.809 24.2642 119.079 24.2642C116.951 24.2642 115.549 25.8849 115.549 28.2315C115.549 30.603 116.931 32.1541 119.183 32.1541ZM117.035 27.5156C117.095 26.4318 117.881 25.4922 119.089 25.4922C120.242 25.4922 120.998 26.3473 121.003 27.5156H117.035Z" fill="#FCFCFC"/>
<path d="M48 17H32C23.1634 17 16 24.1634 16 33V49C16 57.8366 23.1634 65 32 65H48C56.8366 65 64 57.8366 64 49V33C64 24.1634 56.8366 17 48 17Z" fill="#FCFCFC"/>
<path d="M47 39H33C31.6739 39 30.4021 39.5268 29.4645 40.4645C28.5268 41.4021 28 42.6739 28 44V50C28 51.3261 28.5268 52.5979 29.4645 53.5355C30.4021 54.4732 31.6739 55 33 55H47C48.3261 55 49.5979 54.4732 50.5355 53.5355C51.4732 52.5979 52 51.3261 52 50V44C52 42.6739 51.4732 41.4021 50.5355 40.4645C49.5979 39.5268 48.3261 39 47 39ZM40 51C39.2089 51 38.4355 50.7654 37.7777 50.3259C37.1199 49.8864 36.6072 49.2616 36.3045 48.5307C36.0017 47.7998 35.9225 46.9956 36.0769 46.2196C36.2312 45.4437 36.6122 44.731 37.1716 44.1716C37.731 43.6122 38.4437 43.2312 39.2196 43.0769C39.9956 42.9225 40.7998 43.0017 41.5307 43.3045C42.2616 43.6072 42.8864 44.1199 43.3259 44.7777C43.7654 45.4355 44 46.2089 44 47C44 48.0609 43.5786 49.0783 42.8284 49.8284C42.0783 50.5786 41.0609 51 40 51Z" fill="#00A86B"/>
<path d="M40 49C41.1046 49 42 48.1046 42 47C42 45.8954 41.1046 45 40 45C38.8954 45 38 45.8954 38 47C38 48.1046 38.8954 49 40 49Z" fill="#00A86B"/>
<path d="M40 27C39.7348 27 39.4804 27.1054 39.2929 27.2929C39.1054 27.4804 39 27.7348 39 28V33.59L36.46 31.05C36.2687 30.8862 36.0226 30.8006 35.7709 30.8103C35.5193 30.82 35.2805 30.9243 35.1024 31.1024C34.9243 31.2805 34.82 31.5193 34.8103 31.7709C34.8006 32.0226 34.8862 32.2687 35.05 32.46L39.29 36.71C39.3821 36.8 39.4908 36.8713 39.61 36.92C39.7334 36.9723 39.866 36.9992 40 36.9992C40.134 36.9992 40.2666 36.9723 40.39 36.92C40.5092 36.8713 40.6178 36.8 40.71 36.71L45 32.46C45.1638 32.2687 45.2494 32.0226 45.2397 31.7709C45.23 31.5193 45.1257 31.2805 44.9476 31.1024C44.7695 30.9243 44.5307 30.82 44.279 30.8103C44.0274 30.8006 43.7813 30.8862 43.59 31.05L41 33.59V28C41 27.7348 40.8946 27.4804 40.7071 27.2929C40.5196 27.1054 40.2652 27 40 27Z" fill="#00A86B"/>

</g>
<defs>
<clipPath id="clip0_7_626">
<rect width="164" height="80" fill="white"/>
</clipPath>
</defs>
</svg>
