<svg width="33" height="36" viewBox="0 0 33 36" fill="none" xmlns="http://www.w3.org/2000/svg">
<path d="M27.9544 15.5337L25.981 13.5524L18.4133 5.97573C17.8706 5.44018 17.1681 5.1441 16.44 5.1441C15.7119 5.1441 15.0093 5.44018 14.4666 5.97573L6.91864 13.596L4.9453 15.5772C4.81242 15.726 4.72114 15.9138 4.68233 16.1182C4.64352 16.3226 4.65884 16.5351 4.72645 16.7302C4.79405 16.9253 4.9111 17.0948 5.06362 17.2185C5.21614 17.3422 5.3977 17.4149 5.58664 17.4279C5.83655 17.4154 6.07284 17.2987 6.2477 17.1013L6.5733 16.7747V27.9874C6.5733 28.8535 6.88516 29.6842 7.44027 30.2967C7.99537 30.9091 8.74826 31.2532 9.5333 31.2532H23.3466C24.1317 31.2532 24.8846 30.9091 25.4397 30.2967C25.9948 29.6842 26.3066 28.8535 26.3066 27.9874V16.8183L26.6322 17.1448C26.8132 17.3263 27.0488 17.4272 27.2933 17.4279C27.4922 17.4273 27.6864 17.3604 27.8502 17.2359C28.0141 17.1115 28.14 16.9353 28.2115 16.7305C28.283 16.5256 28.2967 16.3017 28.2508 16.0882C28.2049 15.8746 28.1016 15.6813 27.9544 15.5337Z" fill="#7F3DFF"/>
</svg>
