<svg width="33" height="36" viewBox="0 0 33 36" fill="none" xmlns="http://www.w3.org/2000/svg">
<path d="M28.3734 17.1013H17.52V5.12659C20.3233 5.37519 22.9549 6.71664 24.9436 8.91074C26.9322 11.1048 28.148 14.0083 28.3734 17.1013Z" fill="#C6C6C6"/>
<path d="M28.3734 19.2785C28.177 21.7557 27.3438 24.1196 25.9718 26.0925C24.5998 28.0653 22.7459 29.5651 20.628 30.4156C18.5101 31.2661 16.2162 31.432 14.0158 30.8938C11.8154 30.3556 9.79995 29.1357 8.20626 27.3773C6.61257 25.619 5.50685 23.3953 5.01905 20.9675C4.53124 18.5398 4.68161 16.0089 5.45248 13.6722C6.22336 11.3355 7.58271 9.29004 9.3708 7.77627C11.1589 6.2625 13.3015 5.34327 15.5467 5.12659V18.1899C15.5467 18.4786 15.6507 18.7555 15.8357 18.9596C16.0207 19.1638 16.2717 19.2785 16.5334 19.2785H28.3734Z" fill="#C6C6C6"/>
</svg>
