<svg width="33" height="36" viewBox="0 0 33 36" fill="none" xmlns="http://www.w3.org/2000/svg">
<path d="M20.5816 20.2909V21.3795C20.5816 22.0943 20.454 22.8021 20.2061 23.4625C19.9581 24.1228 19.5948 24.7229 19.1367 25.2283C18.6786 25.7337 18.1347 26.1347 17.5362 26.4082C16.9376 26.6817 16.2961 26.8225 15.6483 26.8225H12.4317C12.4165 27.4179 12.254 27.9973 11.9619 28.4981C11.6697 28.9989 11.259 29.402 10.7741 29.6638C10.3698 29.8867 9.92376 30.0023 9.47173 30.0013C8.80303 30.0056 8.1527 29.7601 7.62666 29.3046L3.96613 26.1367C3.60961 25.8314 3.32108 25.4403 3.1226 24.9931C2.92411 24.5459 2.82092 24.0546 2.82092 23.5567C2.82092 23.0588 2.92411 22.5675 3.1226 22.1203C3.32108 21.6732 3.60961 21.282 3.96613 20.9767L7.62666 17.8089C8.0677 17.4205 8.60016 17.1793 9.1613 17.1137C9.72244 17.0482 10.2889 17.1609 10.7939 17.4387C11.4663 17.7936 11.9842 18.4276 12.2344 19.2023H19.5653C19.6974 19.1979 19.8289 19.2228 19.952 19.2756C20.0752 19.3283 20.1874 19.4078 20.2822 19.5093C20.377 19.6109 20.4523 19.7324 20.5038 19.8666C20.5552 20.0009 20.5817 20.1451 20.5816 20.2909Z" fill="#C6C6C6"/>
<path d="M30.1918 12.823C30.1918 13.3209 30.0888 13.8122 29.8904 14.2593C29.692 14.7065 29.4036 15.0977 29.0472 15.403L25.3867 18.5709C24.8533 19.0282 24.1974 19.2771 23.5219 19.2785C23.0699 19.2795 22.6239 19.1639 22.2195 18.941C21.5471 18.5862 21.0292 17.9522 20.779 17.1775H13.4184C13.1567 17.1775 12.9058 17.0628 12.7208 16.8586C12.5357 16.6545 12.4318 16.3776 12.4318 16.0889V15.0003C12.4318 13.5567 12.9515 12.1722 13.8767 11.1515C14.8019 10.1307 16.0567 9.55722 17.3651 9.55722H20.5816C20.5936 8.94864 20.7596 8.35587 21.0607 7.84581C21.3618 7.33574 21.7862 6.92869 22.2859 6.67059C22.7856 6.41248 23.3407 6.3136 23.8886 6.38509C24.4365 6.45659 24.9554 6.69561 25.3867 7.0752L29.0472 10.243C29.4036 10.5484 29.692 10.9396 29.8904 11.3868C30.0888 11.8339 30.1918 12.3252 30.1918 12.823Z" fill="#C6C6C6"/>
</svg>
