<svg width="33" height="36" viewBox="0 0 33 36" fill="none" xmlns="http://www.w3.org/2000/svg">
<path d="M16.6001 18.0888C19.8696 18.0888 22.5201 15.1645 22.5201 11.5572C22.5201 7.94983 19.8696 5.02551 16.6001 5.02551C13.3305 5.02551 10.6801 7.94983 10.6801 11.5572C10.6801 15.1645 13.3305 18.0888 16.6001 18.0888Z" fill="#C6C6C6"/>
<path d="M19.5601 20.1898H13.6401C11.8083 20.1898 10.0516 20.9927 8.75631 22.4217C7.46106 23.8508 6.7334 25.7891 6.7334 27.8101C6.7334 28.6762 7.04525 29.5069 7.60036 30.1194C8.15547 30.7318 8.90836 31.0759 9.6934 31.0759H23.5067C24.2918 31.0759 25.0447 30.7318 25.5998 30.1194C26.1549 29.5069 26.4667 28.6762 26.4667 27.8101C26.4667 25.7891 25.7391 23.8508 24.4438 22.4217C23.1486 20.9927 21.3918 20.1898 19.5601 20.1898Z" fill="#C6C6C6"/>
</svg>
